#!OML:ASF F:\VICON\USERDATA\INSTALL\rory3\rory3.ASF
:FULLY-SPECIFIED
:DEGREES
1
root -13.8396 18.7285 -0.540329 2.40861 -14.239 1.0682
lowerback 2.26081 -0.947326 -1.92149
upperback -0.850945 -1.32585 -0.109659
thorax -2.09911 -0.636825 1.01737
lowerneck -10.3025 -3.7233 -9.60861
upperneck 16.3759 -4.82937 7.71778
head 7.1219 -2.27963 3.65061
rclavicle -3.60546e-014 -1.93815e-015
rhumerus -33.6857 -5.11655 -78.2024
rradius 26.4634
rwrist 19.3544
rhand -22.4663 -1.78373
rfingers 7.12502
rthumb 3.95849 -31.7267
lclavicle -3.60546e-014 -1.93815e-015
lhumerus -32.4892 23.9267 75.0058
lradius 19.2329
lwrist -10.3302
lhand -22.4468 22.8388
lfingers 7.12502
lthumb 3.97732 52.7814
rfemur -8.47365 20.1432 22.4729
rtibia 23.6778
rfoot -15.5421 -3.57434
rtoes 5.25222
lfemur -5.3936 -8.94249 -18.6654
ltibia 21.3721
lfoot -18.0841 18.6788
ltoes -5.93192
2
root -13.8459 18.7273 -0.537553 2.35215 -14.0998 1.15072
lowerback 2.25055 -0.954235 -1.94324
upperback -0.768411 -1.33527 -0.153041
thorax -2.00882 -0.642984 0.984267
lowerneck -10.5157 -3.71085 -9.50691
upperneck 16.4658 -4.80108 7.64239
head 7.1818 -2.26162 3.61006
rclavicle 9.41587e-015 6.31141e-015
rhumerus -33.5602 -5.32483 -78.1618
rradius 26.4345
rwrist 19.8472
rhand -23.2135 -0.332489
rfingers 7.12502
rthumb 3.23694 -30.2877
lclavicle 9.41587e-015 6.31141e-015
lhumerus -32.3167 23.829 75.1178
lradius 19.3238
lwrist -10.3435
lhand -22.34 22.685
lfingers 7.12502
lthumb 4.08042 52.6256
rfemur -8.43285 20.1513 22.4363
rtibia 23.7421
rfoot -15.6234 -3.69599
rtoes 5.50659
lfemur -5.31699 -8.93185 -18.7219
ltibia 21.2983
lfoot -17.9679 18.5439
ltoes -5.48464
3
root -13.8512 18.7254 -0.532566 2.31936 -13.9796 1.18815
lowerback 2.22 -0.982351 -1.90062
upperback -0.706876 -1.37051 -0.18327
thorax -1.92908 -0.662491 0.929403
lowerneck -10.7112 -3.66139 -9.42624
upperneck 16.5786 -4.72534 7.58901
head 7.24269 -2.22098 3.58568
rclavicle 1.16957e-014 5.11871e-015
rhumerus -33.4294 -5.38022 -78.213
rradius 26.2714
rwrist 19.7436
rhand -23.6043 0.476567
rfingers 7.12502
rthumb 2.85949 -29.484
lclavicle 1.16957e-014 5.11871e-015
lhumerus -32.2159 23.8328 75.1747
lradius 19.4491
lwrist -10.2654
lhand -22.3804 22.6282
lfingers 7.12502
lthumb 4.04146 52.5696
rfemur -8.33339 20.1474 22.4313
rtibia 23.6829
rfoot -15.6513 -3.76425
rtoes 5.70619
lfemur -5.31477 -9.03058 -18.7269
ltibia 21.368
lfoot -18.1901 18.3332
ltoes -4.47817
4
root -13.8578 18.7229 -0.530314 2.35434 -13.9318 1.02937
lowerback 2.21349 -0.95716 -1.7044
upperback -0.692527 -1.33003 -0.14657
thorax -1.91534 -0.644622 0.855386
lowerneck -10.7369 -3.66943 -9.39314
upperneck 16.5913 -4.73182 7.54205
head 7.25013 -2.22539 3.56373
rclavicle -3.03224e-014 5.31749e-015
rhumerus -33.3253 -5.47805 -78.1981
rradius 26.0955
rwrist 19.8651
rhand -23.4512 -0.102423
rfingers 7.12502
rthumb 3.00738 -30.061
lclavicle -3.03224e-014 5.31749e-015
lhumerus -32.1954 23.6938 75.2884
lradius 19.647
lwrist -10.0606
lhand -22.436 22.5931
lfingers 7.12502
lthumb 3.98777 52.5355
rfemur -8.31577 20.2235 22.6299
rtibia 23.6867
rfoot -15.6493 -3.86131
rtoes 5.67919
lfemur -5.32266 -9.17347 -18.492
ltibia 21.4074
lfoot -18.6738 18.049
ltoes -2.71453
5
root -13.8643 18.721 -0.529867 2.38678 -13.8982 0.914263
lowerback 2.24018 -0.928395 -1.55005
upperback -0.726433 -1.28728 -0.111558
thorax -1.96877 -0.624286 0.804168
lowerneck -10.7857 -3.64266 -9.4815
upperneck 16.7737 -4.69769 7.61522
head 7.31862 -2.2082 3.60778
rclavicle 5.97332e-014 -3.67752e-015
rhumerus -33.3395 -5.51342 -78.1502
rradius 25.9528
rwrist 20.0906
rhand -23.258 -1.0783
rfingers 7.12502
rthumb 3.19392 -31.0341
lclavicle 5.97332e-014 -3.67752e-015
lhumerus -32.2425 23.3441 75.4409
lradius 19.8733
lwrist -9.66496
lhand -22.4424 22.6928
lfingers 7.12502
lthumb 3.98156 52.6354
rfemur -8.30217 20.3245 22.7847
rtibia 23.6849
rfoot -15.6615 -3.97998
rtoes 5.64644
lfemur -5.3637 -9.01124 -18.3227
ltibia 21.4605
lfoot -18.5937 17.8703
ltoes -2.8559
